<?xml version="1.0" encoding="utf-8"?>
<svg xmlns="http://www.w3.org/2000/svg"
	xmlns:xlink="http://www.w3.org/1999/xlink"
	width="18px" height="19px" viewBox="0 0 18 19">
<path fillRule="evenodd" d="M 12.05 11.93C 12.05 11.93 18 6.91 18 6.91 18 6.91 18 18.99 18 18.99 18 18.99 12.05 11.93 12.05 11.93ZM 6.44 11.39C 6.44 11.39 0.15 6.27 0.15 6.27 0.15 6.27 9.04 0.01 9.04 0.01 9.04 0.01 17.95 6.27 17.95 6.27 17.95 6.27 11.69 11.37 11.69 11.37 11.69 11.37 6.44 11.39 6.44 11.39ZM 0.08 18.99C 0.08 18.99 0.08 6.91 0.08 6.91 0.08 6.91 6.03 11.93 6.03 11.93 6.03 11.93 0.08 18.99 0.08 18.99ZM 11.34 12.05C 11.34 12.05 17.33 19 17.33 19 17.33 19 0.77 19 0.77 19 0.77 19 6.71 12.01 6.71 12.01 6.71 12.01 11.34 12.05 11.34 12.05Z" fill="rgb(255,255,255)"/></svg>