<?xml version="1.0" encoding="utf-8"?>
<svg xmlns="http://www.w3.org/2000/svg"
	xmlns:xlink="http://www.w3.org/1999/xlink"
	width="19px" height="19px" viewBox="0 0 19 19">
<path fillRule="evenodd" d="M 17.48 11.45C 17.48 11.45 16.47 11.45 16.47 11.45 16.31 12.04 16.07 12.61 15.77 13.13 15.77 13.13 16.7 14.06 16.7 14.06 17.3 14.65 17.3 15.62 16.7 16.21 16.7 16.21 16.16 16.75 16.16 16.75 15.57 17.34 14.6 17.34 14.01 16.75 14.01 16.75 13.07 15.81 13.07 15.81 12.55 16.11 11.99 16.34 11.4 16.5 11.4 16.5 11.4 17.48 11.4 17.48 11.4 18.32 10.72 19 9.88 19 9.88 19 9.12 19 9.12 19 8.28 19 7.6 18.32 7.6 17.48 7.6 17.48 7.6 16.5 7.6 16.5 7.01 16.34 6.45 16.11 5.93 15.81 5.93 15.81 4.99 16.75 4.99 16.75 4.4 17.34 3.43 17.34 2.84 16.75 2.84 16.75 2.3 16.21 2.3 16.21 1.7 15.62 1.7 14.65 2.3 14.06 2.3 14.06 3.23 13.13 3.23 13.13 2.93 12.61 2.69 12.04 2.53 11.45 2.53 11.45 1.52 11.45 1.52 11.45 0.68 11.45-0 10.77-0 9.93-0 9.93-0 9.17-0 9.17-0 8.32 0.68 7.64 1.52 7.64 1.52 7.64 2.52 7.64 2.52 7.64 2.68 7.06 2.9 6.5 3.19 5.98 3.19 5.98 2.3 5.09 2.3 5.09 1.7 4.49 1.7 3.53 2.3 2.93 2.3 2.93 2.84 2.39 2.84 2.39 3.43 1.8 4.4 1.8 4.99 2.39 4.99 2.39 5.87 3.27 5.87 3.27 6.4 2.96 6.98 2.71 7.6 2.55 7.6 2.55 7.6 1.52 7.6 1.52 7.6 0.68 8.28-0 9.12-0 9.12-0 9.88-0 9.88-0 10.72-0 11.4 0.68 11.4 1.52 11.4 1.52 11.4 2.55 11.4 2.55 12.02 2.71 12.6 2.96 13.13 3.27 13.13 3.27 14.01 2.39 14.01 2.39 14.6 1.8 15.57 1.8 16.16 2.39 16.16 2.39 16.7 2.93 16.7 2.93 17.3 3.53 17.3 4.49 16.7 5.09 16.7 5.09 15.81 5.98 15.81 5.98 16.1 6.5 16.32 7.06 16.48 7.64 16.48 7.64 17.48 7.64 17.48 7.64 18.32 7.64 19 8.32 19 9.17 19 9.17 19 9.93 19 9.93 19 10.77 18.32 11.45 17.48 11.45ZM 9.5 5.38C 7.19 5.38 5.31 7.26 5.31 9.57 5.31 11.89 7.19 13.76 9.5 13.76 11.81 13.76 13.69 11.89 13.69 9.57 13.69 7.26 11.81 5.38 9.5 5.38ZM 9.5 11.43C 8.45 11.43 7.6 10.58 7.6 9.52 7.6 8.47 8.45 7.62 9.5 7.62 10.55 7.62 11.4 8.47 11.4 9.52 11.4 10.58 10.55 11.43 9.5 11.43Z" fill="rgb(255,255,255)"/></svg>